<svg xmlns="http://www.w3.org/2000/svg" xmlns:xlink="http://www.w3.org/1999/xlink" width="176" height="181" viewBox="0 0 176 181">
  <defs>
    <linearGradient id="linear-gradient" x1="0.5" x2="0.5" y2="1" gradientUnits="objectBoundingBox">
      <stop offset="0" stop-color="#ff7c48"/>
      <stop offset="0.848" stop-color="#e75938"/>
    </linearGradient>
    <linearGradient id="linear-gradient-2" x1="0.5" y1="1.113" x2="0.5" y2="-0.252" gradientUnits="objectBoundingBox">
      <stop offset="0.007" stop-color="#ff5e5e"/>
      <stop offset="0.132" stop-color="#ff7070"/>
      <stop offset="0.535" stop-color="#ffa6a6"/>
      <stop offset="0.836" stop-color="#ffc8c8"/>
      <stop offset="1" stop-color="#ffd5d5"/>
    </linearGradient>
    <linearGradient id="linear-gradient-3" x1="0.5" y1="1" x2="0.5" gradientUnits="objectBoundingBox">
      <stop offset="0" stop-color="#afc8ff"/>
      <stop offset="0.091" stop-color="#99b7ff"/>
      <stop offset="0.288" stop-color="#7199ff"/>
      <stop offset="0.481" stop-color="#5181ff"/>
      <stop offset="0.667" stop-color="#3b6fff"/>
      <stop offset="0.844" stop-color="#2d65ff"/>
      <stop offset="1" stop-color="#2962ff"/>
    </linearGradient>
    <linearGradient id="linear-gradient-6" x1="0.5" y1="1.369" x2="0.5" y2="0.34" gradientUnits="objectBoundingBox">
      <stop offset="0.006" stop-color="#ffae98"/>
      <stop offset="0.924" stop-color="#ec6f5f"/>
    </linearGradient>
    <linearGradient id="linear-gradient-7" x1="0.5" y1="-0.442" x2="0.5" y2="1.553" gradientUnits="objectBoundingBox">
      <stop offset="0" stop-color="#ffae98"/>
      <stop offset="0.956" stop-color="#ec6f5f"/>
    </linearGradient>
    <linearGradient id="linear-gradient-8" x1="334.606" y1="-0.442" x2="334.606" y2="1.553" xlink:href="#linear-gradient-7"/>
    <linearGradient id="linear-gradient-9" x1="0.5" y1="0.015" x2="0.5" y2="2.01" xlink:href="#linear-gradient-7"/>
    <linearGradient id="linear-gradient-10" y1="0.5" x2="1" y2="0.5" gradientUnits="objectBoundingBox">
      <stop offset="0.006" stop-color="gray"/>
      <stop offset="1"/>
    </linearGradient>
    <linearGradient id="linear-gradient-11" x1="0.5" y1="-1.49" x2="0.5" y2="4.231" gradientUnits="objectBoundingBox">
      <stop offset="0.006" stop-color="#ffae98"/>
      <stop offset="1" stop-color="#ec6f5f"/>
    </linearGradient>
    <linearGradient id="linear-gradient-12" x1="704.245" y1="-1.49" x2="704.245" y2="4.231" xlink:href="#linear-gradient-11"/>
    <linearGradient id="linear-gradient-13" x1="0.5" y1="1.529" x2="0.5" y2="-0.444" xlink:href="#linear-gradient-10"/>
    <linearGradient id="linear-gradient-14" x1="0.5" y1="-0.111" x2="0.5" y2="1.671" xlink:href="#linear-gradient-10"/>
    <linearGradient id="linear-gradient-16" x1="0.5" y1="-0.087" x2="0.5" y2="0.98" gradientUnits="objectBoundingBox">
      <stop offset="0" stop-color="#f87c39"/>
      <stop offset="0.042" stop-color="#f7803c"/>
      <stop offset="0.662" stop-color="#f6b871"/>
      <stop offset="0.961" stop-color="#f6cf86"/>
    </linearGradient>
    <linearGradient id="linear-gradient-17" x1="0.5" y1="-0.087" x2="0.5" y2="0.98" gradientUnits="objectBoundingBox">
      <stop offset="0.025" stop-color="#ffb750"/>
      <stop offset="1" stop-color="#ffa440"/>
    </linearGradient>
    <linearGradient id="linear-gradient-18" y1="0.5" x2="1" y2="0.5" gradientUnits="objectBoundingBox">
      <stop offset="0" stop-color="#6eb9ab"/>
      <stop offset="0.272" stop-color="#57bdb5"/>
      <stop offset="0.736" stop-color="#35c3c5"/>
      <stop offset="0.988" stop-color="#29c6cb"/>
    </linearGradient>
  </defs>
  <g id="Group_4428" data-name="Group 4428" transform="translate(-74 -4223)">
    <g id="Group_3697" data-name="Group 3697" transform="translate(81 4255.899)">
      <g id="Group_3696" data-name="Group 3696">
        <rect id="Rectangle_411" data-name="Rectangle 411" width="100.667" height="61.72" rx="8.071" transform="translate(24.008)" fill="url(#linear-gradient)"/>
        <path id="Rectangle_412" data-name="Rectangle 412" d="M5.83,0H42.562a5.831,5.831,0,0,1,5.831,5.831V81.51a5.83,5.83,0,0,1-5.83,5.83H5.83A5.83,5.83,0,0,1,0,81.51V5.83A5.83,5.83,0,0,1,5.83,0Z" transform="translate(118.012 6.663) rotate(90)" fill="#faf9db"/>
        <g id="Group_3661" data-name="Group 3661" transform="translate(101.353 11.491)">
          <rect id="Rectangle_413" data-name="Rectangle 413" width="12.758" height="1.441" fill="#04bac0"/>
          <rect id="Rectangle_414" data-name="Rectangle 414" width="12.758" height="1.442" transform="translate(0 2.578)" fill="#04bac0"/>
          <rect id="Rectangle_415" data-name="Rectangle 415" width="12.758" height="1.442" transform="translate(0 8.466)" fill="#04bac0"/>
          <rect id="Rectangle_416" data-name="Rectangle 416" width="12.758" height="1.442" transform="translate(0 11.044)" fill="#04bac0"/>
        </g>
        <g id="Group_3662" data-name="Group 3662" transform="translate(101.353 27.388)">
          <rect id="Rectangle_417" data-name="Rectangle 417" width="12.758" height="1.441" fill="#ffb750"/>
          <rect id="Rectangle_418" data-name="Rectangle 418" width="12.758" height="1.442" transform="translate(0 2.578)" fill="#ffb750"/>
          <rect id="Rectangle_419" data-name="Rectangle 419" width="12.758" height="1.441" transform="translate(0 8.466)" fill="#ffb750"/>
          <rect id="Rectangle_420" data-name="Rectangle 420" width="12.758" height="1.442" transform="translate(0 11.044)" fill="#ffb750"/>
        </g>
        <g id="Group_3665" data-name="Group 3665" transform="translate(34.808 9.241)">
          <g id="Group_3663" data-name="Group 3663" transform="translate(2.907 2.64)">
            <path id="Path_21563" data-name="Path 21563" d="M100.326,4363.4c-.154-.373,1.378-1.9,1.378-1.9.308.309-1.223,1.841-1.223,1.841A.219.219,0,0,1,100.326,4363.4Zm3.063-3.063c-.154-.371,1.378-1.9,1.378-1.9.308.309-1.223,1.841-1.223,1.841A.22.22,0,0,1,103.389,4360.332Zm3.064-3.062c-.155-.372,1.377-1.9,1.377-1.9.308.308-1.223,1.84-1.223,1.84A.217.217,0,0,1,106.453,4357.269Zm3.063-3.063c-.155-.371,1.378-1.9,1.378-1.9.308.31-1.223,1.841-1.223,1.841A.22.22,0,0,1,109.515,4354.206Zm3.064-3.062c-.155-.373,1.376-1.9,1.376-1.9.309.308-1.222,1.839-1.222,1.839A.214.214,0,0,1,112.579,4351.143Zm3.063-3.063c-.155-.372,1.377-1.9,1.377-1.9.309.308-1.222,1.839-1.222,1.839A.222.222,0,0,1,115.642,4348.08Zm3.063-3.062c-.155-.372,1.377-1.9,1.377-1.9.309.309-1.222,1.84-1.222,1.84A.219.219,0,0,1,118.7,4345.017Zm3.063-3.063c-.154-.373.733-1.259.733-1.259.308.308-.578,1.2-.578,1.2A.217.217,0,0,1,121.767,4341.954Z" transform="translate(-100.315 -4340.695)" fill="#1a1a1a"/>
          </g>
          <g id="Group_3664" data-name="Group 3664" transform="translate(2.777 2.829)">
            <path id="Path_21564" data-name="Path 21564" d="M122.643,4363.51H100.316c-.141-.141-.141-22.469-.141-22.469.141-.142,22.468-.142,22.468-.142.142.142.142,22.47.142,22.47A.142.142,0,0,1,122.643,4363.51Zm-22.186-.282H122.5v-22.045H100.457Z" transform="translate(-100.175 -4340.899)" fill="#1a1a1a"/>
          </g>
          <path id="Path_21565" data-name="Path 21565" d="M103.009,4364.757a2.917,2.917,0,1,1-2.917-2.918A2.919,2.919,0,0,1,103.009,4364.757Z" transform="translate(-97.174 -4339.633)" fill="#045ba7"/>
          <path id="Path_21566" data-name="Path 21566" d="M127.14,4340.76a2.918,2.918,0,1,1-2.918-2.918A2.918,2.918,0,0,1,127.14,4340.76Z" transform="translate(-98.976 -4337.842)" fill="#04bac0"/>
        </g>
        <g id="Group_3667" data-name="Group 3667" transform="translate(38.852 38.543)">
          <path id="Path_21567" data-name="Path 21567" d="M114.384,4375.928a6.42,6.42,0,1,1-6.421-6.419A6.421,6.421,0,0,1,114.384,4375.928Z" transform="translate(-101.544 -4369.509)" fill="#045ba7"/>
          <path id="Path_21568" data-name="Path 21568" d="M123.421,4375.928a6.42,6.42,0,1,1-6.42-6.419A6.421,6.421,0,0,1,123.421,4375.928Z" transform="translate(-102.219 -4369.509)" fill="#04bac0"/>
          <g id="Group_3666" data-name="Group 3666" transform="translate(8.362 1.555)">
            <path id="Path_21569" data-name="Path 21569" d="M115.059,4376.055a6.4,6.4,0,0,0-2.239-4.866,6.406,6.406,0,0,0,0,9.731A6.4,6.4,0,0,0,115.059,4376.055Z" transform="translate(-110.581 -4371.189)" fill="#ffb750"/>
          </g>
        </g>
        <rect id="Rectangle_421" data-name="Rectangle 421" width="100.667" height="61.72" rx="8.071" transform="translate(24.008)" fill="url(#linear-gradient-2)"/>
        <path id="Rectangle_422" data-name="Rectangle 422" d="M5.83,0H42.562a5.831,5.831,0,0,1,5.831,5.831V81.51a5.83,5.83,0,0,1-5.83,5.83H5.83A5.83,5.83,0,0,1,0,81.51V5.83A5.83,5.83,0,0,1,5.83,0Z" transform="translate(118.012 6.663) rotate(90)" fill="#faf9db"/>
        <g id="Group_3668" data-name="Group 3668" transform="translate(101.353 11.491)">
          <rect id="Rectangle_423" data-name="Rectangle 423" width="12.758" height="1.441" fill="#29c6cb"/>
          <rect id="Rectangle_424" data-name="Rectangle 424" width="12.758" height="1.442" transform="translate(0 2.578)" fill="#29c6cb"/>
          <rect id="Rectangle_425" data-name="Rectangle 425" width="12.758" height="1.442" transform="translate(0 8.466)" fill="#29c6cb"/>
          <rect id="Rectangle_426" data-name="Rectangle 426" width="12.758" height="1.442" transform="translate(0 11.044)" fill="#29c6cb"/>
        </g>
        <g id="Group_3669" data-name="Group 3669" transform="translate(101.353 27.388)">
          <rect id="Rectangle_427" data-name="Rectangle 427" width="12.758" height="1.441" fill="#ffb750"/>
          <rect id="Rectangle_428" data-name="Rectangle 428" width="12.758" height="1.442" transform="translate(0 2.578)" fill="#ffb750"/>
          <rect id="Rectangle_429" data-name="Rectangle 429" width="12.758" height="1.441" transform="translate(0 8.466)" fill="#ffb750"/>
          <rect id="Rectangle_430" data-name="Rectangle 430" width="12.758" height="1.442" transform="translate(0 11.044)" fill="#ffb750"/>
        </g>
        <g id="Group_3672" data-name="Group 3672" transform="translate(34.808 9.241)">
          <g id="Group_3670" data-name="Group 3670" transform="translate(2.907 2.64)">
            <path id="Path_21570" data-name="Path 21570" d="M100.326,4363.4c-.154-.373,1.378-1.9,1.378-1.9.308.309-1.223,1.841-1.223,1.841A.219.219,0,0,1,100.326,4363.4Zm3.063-3.063c-.154-.371,1.378-1.9,1.378-1.9.308.309-1.223,1.841-1.223,1.841A.22.22,0,0,1,103.389,4360.332Zm3.064-3.062c-.155-.372,1.377-1.9,1.377-1.9.308.308-1.223,1.84-1.223,1.84A.217.217,0,0,1,106.453,4357.269Zm3.063-3.063c-.155-.371,1.378-1.9,1.378-1.9.308.31-1.223,1.841-1.223,1.841A.22.22,0,0,1,109.515,4354.206Zm3.064-3.062c-.155-.373,1.376-1.9,1.376-1.9.309.308-1.222,1.839-1.222,1.839A.214.214,0,0,1,112.579,4351.143Zm3.063-3.063c-.155-.372,1.377-1.9,1.377-1.9.309.308-1.222,1.839-1.222,1.839A.222.222,0,0,1,115.642,4348.08Zm3.063-3.062c-.155-.372,1.377-1.9,1.377-1.9.309.309-1.222,1.84-1.222,1.84A.219.219,0,0,1,118.7,4345.017Zm3.063-3.063c-.154-.373.733-1.259.733-1.259.308.308-.578,1.2-.578,1.2A.217.217,0,0,1,121.767,4341.954Z" transform="translate(-100.315 -4340.695)" fill="#1a1a1a"/>
          </g>
          <g id="Group_3671" data-name="Group 3671" transform="translate(2.777 2.829)">
            <path id="Path_21571" data-name="Path 21571" d="M122.643,4363.51H100.316c-.141-.141-.141-22.469-.141-22.469.141-.142,22.468-.142,22.468-.142.142.142.142,22.47.142,22.47A.142.142,0,0,1,122.643,4363.51Zm-22.186-.282H122.5v-22.045H100.457Z" transform="translate(-100.175 -4340.899)" fill="#1a1a1a"/>
          </g>
          <path id="Path_21572" data-name="Path 21572" d="M103.009,4364.757a2.917,2.917,0,1,1-2.917-2.918A2.919,2.919,0,0,1,103.009,4364.757Z" transform="translate(-97.174 -4339.633)" fill="#2962ff"/>
          <path id="Path_21573" data-name="Path 21573" d="M127.14,4340.76a2.918,2.918,0,1,1-2.918-2.918A2.918,2.918,0,0,1,127.14,4340.76Z" transform="translate(-98.976 -4337.842)" fill="#29c6cb"/>
        </g>
        <g id="Group_3673" data-name="Group 3673" transform="translate(38.852 39.189)">
          <path id="Path_21574" data-name="Path 21574" d="M113.092,4375.981a5.774,5.774,0,1,1-5.774-5.774A5.773,5.773,0,0,1,113.092,4375.981Z" transform="translate(-101.544 -4370.207)" fill="#2962ff"/>
          <path id="Path_21575" data-name="Path 21575" d="M128.766,4375.981a5.773,5.773,0,1,1-5.774-5.774A5.773,5.773,0,0,1,128.766,4375.981Z" transform="translate(-102.715 -4370.207)" fill="#29c6cb"/>
        </g>
        <path id="Path_21576" data-name="Path 21576" d="M153.669,4352.553a7.959,7.959,0,0,0-11.083,3.131c-2.257-1.04-4.669,6.354-.266,13.74l13.765.1C160.989,4360.476,159.159,4355.317,153.669,4352.553Z" transform="translate(-65.554 -4329.616)" fill="#2d3559"/>
        <path id="Path_21577" data-name="Path 21577" d="M172.986,4391.711c-4.724-9.146-24.928-8.336-27.652-8.755-.74.03-.992.048-1.289.06-6.477.473-23.634,1.817-27.966,14.273,0,0-7.347,24.011-6.8,38,.212,5.389,7.341,12.235,7.994,11.279-.344,2.551-2.578,20.37-2.578,20.37h64.319s-1.133-8.457-1.84-20.094C180.353,4448.183,171.387,4384.892,172.986,4391.711Z" transform="translate(-63.268 -4331.971)" fill="url(#linear-gradient-3)"/>
        <path id="Path_21578" data-name="Path 21578" d="M112.14,4421.526c7.937-15.078,31.122-38.485,31.122-38.485-32.169-6.828-71.313,53.478-63.142,84.372l40.048.128c2.764-6.108,3.556-12.725,1.359-17.544Z" transform="translate(-61.01 -4331.937)" fill="url(#linear-gradient-3)"/>
        <path id="Path_21579" data-name="Path 21579" d="M183,4421.526c-7.937-15.078-31.122-38.485-31.122-38.485,32.17-6.828,71.314,53.478,63.143,84.372l-40.048.128c-2.764-6.108-3.556-12.725-1.36-17.544Z" transform="translate(-66.452 -4331.937)" fill="url(#linear-gradient-3)"/>
        <path id="Path_21580" data-name="Path 21580" d="M149.913,4377.112c-3.808-.135-5.041.946-5.041.946l4.834,5.539,4.82-5.539S153.722,4377.25,149.913,4377.112Z" transform="translate(-65.929 -4331.533)" fill="#1a1a1a"/>
        <path id="Path_21581" data-name="Path 21581" d="M79.881,4400.348l-3.568,5.6h7.136Z" transform="translate(-60.808 -4333.27)" fill="#ff7c48"/>
        <g id="Group_3674" data-name="Group 3674" transform="translate(151.214 78.465)">
          <path id="Path_21582" data-name="Path 21582" d="M223.334,4429.892c.011-.382,3.685-.942,5.734-4.881a3.63,3.63,0,0,0,.386-2.192,6.929,6.929,0,0,1-1.891.341c-1.922.083-3.64-.569-4.3-1.62a1.879,1.879,0,0,1-.01-1.979c.706-1.319,2.121-1.625,3.7-.795a5.783,5.783,0,0,1,2.793,3.544,4.713,4.713,0,0,0,2.48-2.232c2.3-4.465-.137-7.294-.242-7.413.311-.221,3,2.881.579,7.585a5.231,5.231,0,0,1-2.742,2.433,4,4,0,0,1-.412,2.5,8.824,8.824,0,0,1-6.044,4.7A.094.094,0,0,1,223.334,4429.892Zm1.927-11.205a1.809,1.809,0,0,0-1.676,1.054,1.5,1.5,0,0,0,0,1.6c.581.924,2.21,1.518,3.963,1.443a6.774,6.774,0,0,0,1.84-.338,5.369,5.369,0,0,0-2.613-3.342A3.439,3.439,0,0,0,225.262,4418.687Z" transform="translate(-222.977 -4412.654)" fill="#2d3559"/>
        </g>
        <path id="Path_21583" data-name="Path 21583" d="M210.457,4346.9l2.531-2.531a.689.689,0,0,0-.974-.974l-2.531,2.53-2.532-2.53a.689.689,0,0,0-.974.974l2.532,2.531-2.532,2.531a.689.689,0,1,0,.974.973l2.532-2.53,2.531,2.53a.689.689,0,1,0,.974-.973Z" transform="translate(-70.478 -4329)" fill="#344fb4"/>
        <path id="Path_21584" data-name="Path 21584" d="M154.081,4384.012l-.692-15.234-3.66,2.663-3.659-2.663-.692,15.234a6.886,6.886,0,0,0,4.351,1.362C152.9,4385.374,154.081,4384.012,154.081,4384.012Z" transform="translate(-65.966 -4330.911)" fill="url(#linear-gradient-6)"/>
        <path id="Path_21585" data-name="Path 21585" d="M161.734,4363.819c-1.587-2.406-5.232.175-5.232.175l.8,5.34C160.013,4370.016,163.554,4366.577,161.734,4363.819Z" transform="translate(-66.797 -4330.464)" fill="url(#linear-gradient-7)"/>
        <path id="Path_21586" data-name="Path 21586" d="M161.247,4364.649c.572.9-.029,2.31-1.34,3.137s-2.839.767-3.411-.136.03-2.31,1.342-3.139S160.676,4363.745,161.247,4364.649Z" transform="translate(-66.781 -4330.549)" fill="#df644e"/>
        <path id="Path_21587" data-name="Path 21587" d="M137.77,4363.819c1.586-2.406,5.233.175,5.233.175l-.8,5.34C139.491,4370.016,135.95,4366.577,137.77,4363.819Z" transform="translate(-65.361 -4330.464)" fill="url(#linear-gradient-8)"/>
        <path id="Path_21588" data-name="Path 21588" d="M138.3,4364.649c-.572.9.029,2.31,1.341,3.137s2.838.767,3.41-.136-.029-2.31-1.341-3.139S138.87,4363.745,138.3,4364.649Z" transform="translate(-65.421 -4330.549)" fill="#df644e"/>
        <ellipse id="Ellipse_5511" data-name="Ellipse 5511" cx="1.435" cy="1.832" rx="1.435" ry="1.832" transform="translate(87.327 66.217)" fill="#ffb750"/>
        <ellipse id="Ellipse_5512" data-name="Ellipse 5512" cx="1.435" cy="1.832" rx="1.435" ry="1.832" transform="translate(87.327 89.141)" fill="#ffb750"/>
        <path id="Path_21589" data-name="Path 21589" d="M156.8,4447.063a1.478,1.478,0,1,1-1.435-1.833A1.67,1.67,0,0,1,156.8,4447.063Z" transform="translate(-66.605 -4336.622)" fill="#ffb750"/>
        <ellipse id="Ellipse_5513" data-name="Ellipse 5513" cx="1.435" cy="1.832" rx="1.435" ry="1.832" transform="translate(87.327 124.255)" fill="#ffb750"/>
        <path id="Path_21590" data-name="Path 21590" d="M156.957,4362.8v-.872c-4.23.58-10.672-1.668-13.857-3.068a37.88,37.88,0,0,0-1.1,7.75,19.457,19.457,0,0,0,.2,1.979c.389,2.271,1,5.078,3.577,6.193a15.846,15.846,0,0,0,7.186,0c2.577-1.115,3.189-3.921,3.577-6.193.081-.476.15-1.1.208-1.8Z" transform="translate(-65.714 -4330.171)" fill="#ffae98"/>
        <path id="Path_21591" data-name="Path 21591" d="M154.256,4378.135l-4.827,5.743-4.826-5.743-3.342,4.045,1.7,5.688a2.469,2.469,0,0,0,3.827,1.281l2.632-1.938c.015,0,2.129,1.557,2.129,1.557a2.887,2.887,0,0,0,4.486-1.53l1.444-5.028Z" transform="translate(-65.659 -4331.611)" fill="#faf9db"/>
        <path id="Path_21592" data-name="Path 21592" d="M142,4367.106a19.25,19.25,0,0,0,.2,2.01c.4,2.272,1.021,5.079,3.653,6.193a11.816,11.816,0,0,0,3.591.412,11.327,11.327,0,0,0,3.512-.412c2.578-1.115,3.19-3.921,3.578-6.193.046-.27.088-.59.127-.943-.819,2.739-2.706,5.621-7.029,5.621-5.915,0-7.228-5.034-7.578-7.836C142.019,4366.467,142,4366.868,142,4367.106Z" transform="translate(-65.714 -4330.701)" fill="url(#linear-gradient-9)"/>
        <path id="Path_21593" data-name="Path 21593" d="M157.177,4367.775a1.882,1.882,0,1,1-1.877-1.886A1.882,1.882,0,0,1,157.177,4367.775Z" transform="translate(-66.567 -4330.696)" fill="#e97d6a"/>
        <path id="Path_21594" data-name="Path 21594" d="M153.475,4365.791a.326.326,0,0,0,.317-.333l-.018-.807a.326.326,0,0,0-.651.015l.018.808A.326.326,0,0,0,153.475,4365.791Z" transform="translate(-66.545 -4330.58)" fill="#92372b"/>
        <path id="Path_21595" data-name="Path 21595" d="M142.806,4367.775a1.882,1.882,0,1,0,1.877-1.886A1.884,1.884,0,0,0,142.806,4367.775Z" transform="translate(-65.774 -4330.696)" fill="#e97d6a"/>
        <path id="Path_21596" data-name="Path 21596" d="M146.574,4365.791a.326.326,0,0,1-.326-.326v-.805a.326.326,0,1,1,.651,0v.805A.326.326,0,0,1,146.574,4365.791Z" transform="translate(-66.031 -4330.58)" fill="#92372b"/>
        <g id="Group_3675" data-name="Group 3675" transform="translate(83.575 57.105)">
          <path id="Path_21597" data-name="Path 21597" d="M150.079,4466.771c-.2-.2-.2-77.2-.2-77.2.4,0,.4,77,.4,77A.2.2,0,0,1,150.079,4466.771Z" transform="translate(-149.877 -4389.57)" fill="#1a7c7c"/>
        </g>
        <g id="Group_3676" data-name="Group 3676" transform="translate(0 89.409)">
          <path id="Path_21598" data-name="Path 21598" d="M65.6,4436.094a5.177,5.177,0,0,1-1.644-.263,6.839,6.839,0,0,1-3.9-4.085c-1.061-2.417-.246-3.99.626-4.883a5.806,5.806,0,0,1,1.954-1.278,2.959,2.959,0,0,1-.387-1.1,4.4,4.4,0,0,1,.657,1,6.273,6.273,0,0,1,4.2-.164,1.506,1.506,0,0,1,1.083,1.388c0,.725-.481,1.171-1.31,1.224a5.224,5.224,0,0,1-4.086-2.1,5.546,5.546,0,0,0-1.911,1.227,3.846,3.846,0,0,0-.568,4.573,6.576,6.576,0,0,0,3.725,3.931,5.746,5.746,0,0,0,4.214-.4C68.331,4435.445,67.152,4436.094,65.6,4436.094Zm-2.525-10.366a4.957,4.957,0,0,0,3.789,1.919c.475-.03,1.042-.218,1.046-.945a1.254,1.254,0,0,0-.907-1.123A6.009,6.009,0,0,0,63.076,4425.728Z" transform="translate(-59.556 -4424.481)" fill="#2d3559"/>
        </g>
        <path id="Path_21599" data-name="Path 21599" d="M218.489,4473.534a35.616,35.616,0,0,0,1.095-9.029c-11.127-.613-17.715,4.541-21.326,9.094Z" transform="translate(-69.916 -4338.058)" fill="#344fb4"/>
        <path id="Path_21600" data-name="Path 21600" d="M80.117,4473.534a35.616,35.616,0,0,1-1.094-9.029c11.127-.613,17.715,4.541,21.325,9.094Z" transform="translate(-61.01 -4338.058)" fill="#ffb750"/>
        <g id="Group_3677" data-name="Group 3677" transform="translate(83.575 52.063)">
          <path id="Path_21601" data-name="Path 21601" d="M150.079,4387.861a24.554,24.554,0,0,1-.2-3.741c.4,0,.4,3.538.4,3.538A.2.2,0,0,1,150.079,4387.861Z" transform="translate(-149.877 -4384.12)" fill="#045ba7"/>
        </g>
        <g id="Group_3678" data-name="Group 3678" transform="translate(36.578 103.213)">
          <path id="Path_21602" data-name="Path 21602" d="M124.276,4460.067c-2.734-17.106-24.965-20.61-25.189-20.643.287-.366,22.811,3.18,25.389,20.411C124.3,4460.067,124.286,4460.067,124.276,4460.067Z" transform="translate(-99.087 -4439.399)" fill="#1a7c7c"/>
        </g>
        <g id="Group_3679" data-name="Group 3679" transform="translate(105.862 102.839)">
          <path id="Path_21603" data-name="Path 21603" d="M173.964,4460.038c2.378-17.463,24.9-21.009,25.129-21.042-.166.433-22.4,3.937-24.93,20.871A.2.2,0,0,1,173.964,4460.038Z" transform="translate(-173.964 -4438.995)" fill="#1a7c7c"/>
        </g>
        <path id="Rectangle_431" data-name="Rectangle 431" d="M10.217,0H63.826A10.217,10.217,0,0,1,74.043,10.217V38.745A10.217,10.217,0,0,1,63.826,48.962H10.216A10.216,10.216,0,0,1,0,38.746V10.217A10.217,10.217,0,0,1,10.217,0Z" transform="translate(46.819 71.987)" fill="#d1d1d1"/>
        <path id="Rectangle_432" data-name="Rectangle 432" d="M10.217,0H63.826A10.217,10.217,0,0,1,74.043,10.217V38.745A10.217,10.217,0,0,1,63.826,48.962H10.216A10.216,10.216,0,0,1,0,38.746V10.217A10.217,10.217,0,0,1,10.217,0Z" transform="translate(46.819 71.987)" fill="url(#linear-gradient-10)" style="mix-blend-mode: soft-light;isolation: isolate"/>
        <path id="Rectangle_433" data-name="Rectangle 433" d="M4.772,0H16.64a4.772,4.772,0,0,1,4.772,4.772v5.881a4.772,4.772,0,0,1-4.772,4.772H4.771A4.771,4.771,0,0,1,0,10.654V4.772A4.772,4.772,0,0,1,4.772,0Z" transform="translate(73.135 96.441)" fill="#faf9db"/>
        <g id="Group_3682" data-name="Group 3682" transform="translate(51.117 123.232)">
          <path id="Path_21604" data-name="Path 21604" d="M134.429,4468.637c-.465-1.952-2.186-7.516-4.221-7.583a8.491,8.491,0,0,0-3.087.524c-1.263-.875-3.864-.533-4.814-.1a6.291,6.291,0,0,0-5.3,1.144c-1.845,1.33-2.74,2.965-1.877,5.068a3.912,3.912,0,0,0,4.837,2.254c1.245-.416,2.528-.6,3.216,0a3.155,3.155,0,0,0,3.424.362c1.379.675,3.464.462,4.17-.254C132.463,4470.593,134.8,4470.193,134.429,4468.637Z" transform="translate(-114.8 -4461.034)" fill="url(#linear-gradient-11)"/>
          <g id="Group_3680" data-name="Group 3680" transform="translate(7.379 0.284)">
            <path id="Path_21605" data-name="Path 21605" d="M126.1,4470.553c-1.863-7.249-3.254-8.886-3.268-8.9a.223.223,0,0,1,.018-.311c.368.082,1.778,1.7,3.464,8.943a.22.22,0,0,1-.164.265A.248.248,0,0,1,126.1,4470.553Z" transform="translate(-122.775 -4461.341)" fill="#c55347"/>
          </g>
          <g id="Group_3681" data-name="Group 3681" transform="translate(12.101 0.324)">
            <path id="Path_21606" data-name="Path 21606" d="M131.754,4470.3c-1.468-6.284-3.784-8.518-3.807-8.539a.22.22,0,1,1,.3-.321c.1.092,2.436,2.332,3.723,8.6a.218.218,0,0,1-.17.259A.231.231,0,0,1,131.754,4470.3Z" transform="translate(-127.877 -4461.384)" fill="#c55347"/>
          </g>
        </g>
        <g id="Group_3685" data-name="Group 3685" transform="translate(96.896 123.232)">
          <path id="Path_21607" data-name="Path 21607" d="M164.313,4468.637c.466-1.952,2.187-7.516,4.222-7.583a8.495,8.495,0,0,1,3.087.524c1.263-.875,3.864-.533,4.814-.1a6.292,6.292,0,0,1,5.3,1.144c1.845,1.33,2.739,2.965,1.877,5.068a3.913,3.913,0,0,1-4.838,2.254c-1.245-.416-2.527-.6-3.216,0a3.154,3.154,0,0,1-3.423.362c-1.379.675-3.465.462-4.17-.254C166.279,4470.593,163.942,4470.193,164.313,4468.637Z" transform="translate(-164.274 -4461.034)" fill="url(#linear-gradient-12)"/>
          <g id="Group_3683" data-name="Group 3683" transform="translate(8.747 0.228)">
            <path id="Path_21608" data-name="Path 21608" d="M173.946,4470.549c-.168-.033-.242-.151-.214-.27,1.687-7.24,3.1-8.861,3.155-8.926a.219.219,0,0,1,.309-.016,36.689,36.689,0,0,0-3.037,9.042A.219.219,0,0,1,173.946,4470.549Z" transform="translate(-173.727 -4461.281)" fill="#c55347"/>
          </g>
          <g id="Group_3684" data-name="Group 3684" transform="translate(3.471 0.324)">
            <path id="Path_21609" data-name="Path 21609" d="M168.245,4470.3c-.164-.03-.241-.145-.217-.265,1.286-6.264,3.625-8.5,3.723-8.6a.22.22,0,1,1,.3.321c-.023.021-2.338,2.255-3.593,8.362A.22.22,0,0,1,168.245,4470.3Z" transform="translate(-168.024 -4461.384)" fill="#c55347"/>
          </g>
        </g>
        <path id="Path_21610" data-name="Path 21610" d="M180.393,4473.409H115.446a2.244,2.244,0,0,1,0-4.487h64.947a2.244,2.244,0,1,1,0,4.487Z" transform="translate(-63.563 -4338.392)" fill="#faf9db"/>
        <path id="Path_21611" data-name="Path 21611" d="M153.47,4471.114h-7.192V4441.8a3.6,3.6,0,1,1,7.192,0Z" transform="translate(-66.034 -4336.097)" fill="#d1d1d1"/>
        <path id="Path_21612" data-name="Path 21612" d="M153.47,4471.114h-7.192V4441.8a3.6,3.6,0,1,1,7.192,0Z" transform="translate(-66.034 -4336.097)" fill="#d1d1d1"/>
        <g id="Group_3686" data-name="Group 3686" transform="translate(76.307 31.228)">
          <path id="Path_21613" data-name="Path 21613" d="M145.349,4368.256a3.326,3.326,0,1,1,3.326-3.326A3.33,3.33,0,0,1,145.349,4368.256Zm0-6.32a2.993,2.993,0,1,0,2.992,2.994A3,3,0,0,0,145.349,4361.937Z" transform="translate(-142.023 -4361.604)" fill="#fff"/>
        </g>
        <g id="Group_3687" data-name="Group 3687" transform="translate(84.465 31.228)">
          <path id="Path_21614" data-name="Path 21614" d="M154.165,4368.256a3.326,3.326,0,1,1,3.326-3.326A3.33,3.33,0,0,1,154.165,4368.256Zm0-6.32a2.993,2.993,0,1,0,2.993,2.994A3,3,0,0,0,154.165,4361.937Z" transform="translate(-150.839 -4361.604)" fill="#fff"/>
        </g>
        <path id="Path_21615" data-name="Path 21615" d="M179.232,4405.653h-8.994v8.683a7.425,7.425,0,0,0,7.426,7.425h11.021v-6.653A9.482,9.482,0,0,0,179.232,4405.653Z" transform="translate(-67.823 -4333.666)" fill="url(#linear-gradient-13)" style="mix-blend-mode: soft-light;isolation: isolate"/>
        <path id="Path_21616" data-name="Path 21616" d="M216.753,4470.156c3.687-13.942-2.261-33.875-12.857-50.922.019.058,14.5,42.023-25.266,45.977q-1.92.19-3.607.452a31.714,31.714,0,0,0,1.682,4.623Z" transform="translate(-68.181 -4334.68)" fill="url(#linear-gradient-14)" style="mix-blend-mode: soft-light;isolation: isolate"/>
        <path id="Path_21617" data-name="Path 21617" d="M117.761,4465.337c-35.181-3.5-27.905-36.742-25.746-44.4-9.99,16.69-15.471,35.833-11.9,49.349l40.048.129a31.84,31.84,0,0,0,1.66-4.549C120.568,4465.659,119.216,4465.482,117.761,4465.337Z" transform="translate(-61.01 -4334.807)" fill="url(#linear-gradient-14)" style="mix-blend-mode: soft-light;isolation: isolate"/>
        <path id="Path_21618" data-name="Path 21618" d="M142.806,4355.542s2.093-5.6,6.974-6.017Z" transform="translate(-65.774 -4329.474)" fill="#2d3559"/>
        <path id="Path_21619" data-name="Path 21619" d="M150.343,4351.406s6.174-1.867,9.134,3.5Z" transform="translate(-66.337 -4329.591)" fill="#2d3559"/>
        <path id="Path_21620" data-name="Path 21620" d="M142.418,4355.781s-.59-3.542-4.808-3l4.808,3.154Z" transform="translate(-65.386 -4329.713)" fill="#2d3559"/>
        <rect id="Rectangle_434" data-name="Rectangle 434" width="40.091" height="40.091" rx="8.024" transform="translate(105.062 43.143)" fill="url(#linear-gradient-16)"/>
        <g id="Group_3688" data-name="Group 3688" transform="translate(120.167 58.523)">
          <path id="Path_21621" data-name="Path 21621" d="M190.159,4400.748a.736.736,0,0,1-.52-1.256l8.173-8.173a.736.736,0,1,1,1.04,1.042l-8.173,8.172A.729.729,0,0,1,190.159,4400.748Z" transform="translate(-189.424 -4391.103)" fill="#faf9db"/>
        </g>
        <g id="Group_3689" data-name="Group 3689" transform="translate(131.431 56.055)">
          <path id="Path_21622" data-name="Path 21622" d="M202.332,4403.25a.735.735,0,0,1-.519-1.255l6.34-6.342-5.962-5.962a.736.736,0,0,1,1.04-1.041l6.483,6.482a.734.734,0,0,1,0,1.04l-6.862,6.863A.731.731,0,0,1,202.332,4403.25Z" transform="translate(-201.597 -4388.435)" fill="#faf9db"/>
        </g>
        <g id="Group_3690" data-name="Group 3690" transform="translate(110.158 56.055)">
          <path id="Path_21623" data-name="Path 21623" d="M186.2,4403.25a.733.733,0,0,1-.52-.214l-6.861-6.863a.734.734,0,0,1,0-1.04l6.483-6.482a.736.736,0,1,1,1.041,1.041l-5.964,5.962,6.341,6.342a.735.735,0,0,1-.52,1.255Z" transform="translate(-178.606 -4388.435)" fill="#faf9db"/>
        </g>
        <g id="Group_3691" data-name="Group 3691" transform="translate(2.901 118.249)">
          <path id="Path_21624" data-name="Path 21624" d="M104.938,4472.579H66.921a4.229,4.229,0,1,1,0-8.458h38.017a4.229,4.229,0,0,1,0,8.458Z" transform="translate(-62.691 -4456.282)" fill="#344fb4"/>
          <path id="Path_21625" data-name="Path 21625" d="M104.367,4470.655H67.958a2.138,2.138,0,1,1,0-4.276h36.409a2.138,2.138,0,0,1,0,4.276Z" transform="translate(-62.925 -4456.45)" fill="#faf9db"/>
          <path id="Path_21626" data-name="Path 21626" d="M101.112,4463.488h-30.6a3.919,3.919,0,0,1,0-7.839h30.6a3.919,3.919,0,0,1,0,7.839Z" transform="translate(-62.983 -4455.649)" fill="url(#linear-gradient-17)"/>
          <path id="Path_21627" data-name="Path 21627" d="M100.848,4461.705H71.163a1.981,1.981,0,1,1,0-3.962h29.685a1.981,1.981,0,1,1,0,3.962Z" transform="translate(-63.176 -4455.805)" fill="#faf9db"/>
        </g>
        <g id="Group_3692" data-name="Group 3692" transform="translate(82.14 32.9)">
          <path id="Path_21628" data-name="Path 21628" d="M149.483,4369.247c-.826-.591-1.148-1.033-1.156-1.435a1.218,1.218,0,0,1,.574-.909,1.622,1.622,0,0,0,.38-.4,8.1,8.1,0,0,0,.151-2.844.229.229,0,0,1,.457-.04,8.386,8.386,0,0,1-.205,3.1,1.967,1.967,0,0,1-.485.529c-.259.221-.416.369-.414.553s.152.487.84,1.033a.23.23,0,0,1-.142.409Z" transform="translate(-148.327 -4363.411)" fill="#c55347"/>
        </g>
        <g id="Group_3693" data-name="Group 3693" transform="translate(82.739 34.427)">
          <path id="Path_21629" data-name="Path 21629" d="M148.988,4365.848c-.1-.3.36-.777.988-.786a1.325,1.325,0,0,1,1.007.441c-.471.005-.719-.117-1-.108a1.423,1.423,0,0,0-.876.4A.168.168,0,0,1,148.988,4365.848Z" transform="translate(-148.974 -4365.062)" fill="#fff"/>
        </g>
        <g id="Group_3694" data-name="Group 3694" transform="translate(82.523 39.678)">
          <path id="Path_21630" data-name="Path 21630" d="M150.518,4371.425c-.033,0-1.583-.232-1.583-.232a.23.23,0,0,1-.192-.262.233.233,0,0,1,.261-.193l1.549.231a.23.23,0,0,1-.034.457Z" transform="translate(-148.74 -4370.736)" fill="#c55347"/>
        </g>
        <g id="Group_3695" data-name="Group 3695" transform="translate(14.356 80.913)">
          <path id="Path_21631" data-name="Path 21631" d="M83.3,4431.761h36.115a8.231,8.231,0,0,0,0-16.461H83.3a8.231,8.231,0,0,0,0,16.461Z" transform="translate(-75.071 -4415.3)" fill="url(#linear-gradient-18)"/>
          <circle id="Ellipse_5514" data-name="Ellipse 5514" cx="5.991" cy="5.991" r="5.991" transform="translate(3.241 2.24)" fill="#ffb750"/>
        </g>
      </g>
    </g>
    <rect id="Rectangle_534" data-name="Rectangle 534" width="176" height="181" transform="translate(74 4223)" fill="none"/>
  </g>
</svg>
