<svg width="48" height="48" viewBox="0 0 48 48" fill="none" xmlns="http://www.w3.org/2000/svg">
<path d="M24 48C37.2548 48 48 37.2548 48 24C48 10.7452 37.2548 0 24 0C10.7452 0 0 10.7452 0 24C0 37.2548 10.7452 48 24 48Z" fill="#FDE735"/>
<path d="M31.5077 23.1872C31.6596 23.2782 31.7837 23.3997 31.8695 23.5412C31.9552 23.6828 32 23.8402 32 24C32 24.1598 31.9552 24.3172 31.8695 24.4588C31.7837 24.6003 31.6596 24.7218 31.5077 24.8128L19.7942 31.8243C19.6227 31.927 19.4219 31.9871 19.2137 31.9981C19.0054 32.0092 18.7977 31.9708 18.6129 31.8871C18.4281 31.8034 18.2733 31.6775 18.1652 31.5232C18.0572 31.3689 18.0001 31.1919 18 31.0115V16.9885C18.0001 16.8081 18.0572 16.6311 18.1652 16.4768C18.2733 16.3225 18.4281 16.1966 18.6129 16.1129C18.7977 16.0292 19.0054 15.9908 19.2137 16.0019C19.4219 16.0129 19.6227 16.073 19.7942 16.1757L31.5077 23.1872Z" fill="#191E50"/>
</svg>
